<?xml version="1.0" encoding="UTF-8"?><svg id="a" xmlns="http://www.w3.org/2000/svg" viewBox="0 0 800 600.7"><path d="M455.98,343.4c-28.72,46.64-39.34,97.18-41.42,150.15,.32-.99,.69-1.96,.96-2.96,.32-1.16,.52-2.35,.83-3.52,5.44-20.02,13.97-38.35,29.52-52.66,14.12-13,30.55-20.54,50.1-20.17,8.38,.15,24.02,4.28,30.24,8.03-5.14,1.35-10.25,2.43-15.18,4.04-17.8,5.82-31.8,17.14-43.62,31.24-4.56,5.44-9.23,7.32-16.13,4.89-7-2.47-12.96,.17-17.05,6.67-5.04,8.01-7.2,17.06-9.17,26.15-3.56,16.48-5.22,33.16-5.29,50.01,0,.95,0,1.91,0,3.23h-29.95c-1.09-10.08-1.76-20.21-3.35-30.2-2.39-14.97-6.22-29.56-15.64-41.94-6.75-8.87-13.59-11.02-23.75-6.8-7.3,3.03-12.36,.22-17.57-4.47-11.72-10.56-25.05-18.65-40.25-22.98-9.19-2.61-18.77-3.84-27.51-5.56,44.27-30.3,105.91-22.23,130.17,43.72,.59-6.46-10.91-46.3-18.68-64.68-9.63-22.79-23.06-45.49-34.65-58.49-9.61,10.16-21.57,11.85-34.56,9.19-10.66-2.19-17.79-8.93-22.06-18.66-2.49-5.68-4.33-11.64-7.05-17.58,0,4.85,.17,9.71-.05,14.55-.21,4.58-.42,9.21-1.33,13.69-2.3,11.42-10.22,18-20.43,22.19-7.93,3.26-16.18,4.81-24.81,3.39-12.48-2.04-21.22-11.65-22.66-24.29-1.57-13.75,3.15-24.87,13.2-34.01,.61-.56,1.38-.94,2.46-1.67-21.75-5.09-32.16-28.43-29.35-46.42,2.82-18.07,21.66-28.76,39.82-21.88,5.65,2.14,10.67,5.98,15.87,9.21,1.81,1.12,3.3,2.75,5.49,4.61-1.51-5.37-3.09-9.98-4.09-14.71-5.03-23.84,12.41-45.18,36.81-45.22,15.85-.02,30.29,13.93,30.88,30.22,.19,5.34-.53,10.71-.84,16.22,13.52-8.83,27.47-10.79,40.63,.31,10.31,8.71,14.56,20.42,10.58,33.6-5.06,16.73-19.07,21.83-34.93,24.41,1.79,2.06,3.54,3.96,5.17,5.96,4.94,6.05,7.2,13,7.05,20.81-.03,1.31,.35,2.95,1.15,3.91,19.92,23.81,34.65,50.5,44.74,79.81,.19,.56,.54,1.07,1.17,1.52-2.45-13.28-4.86-26.58-7.37-39.85-7.41-39.16-12.57-78.54-10.51-118.52,.92-17.87,3.18-35.55,8.49-52.76,.89-2.88-.16-6.36-1.15-9.76-1.05,2.15-2.07,4.33-3.17,6.46-7.49,14.55-22.73,20.7-36.86,14.9-15.31-6.28-21.8-24.66-14.34-40.58,2.59-5.52,6.78-10.43,13.67-15.86-1.52-.47-2.79-.87-4.05-1.27-7-2.21-12.18-6.77-16.25-12.7-6.26-9.12-9.69-19.1-9-30.3,.76-12.39,9.46-21,21.86-21.91,12.1-.89,21.87,3.83,30.27,12.08,1.37,1.35,2.64,2.81,4.5,4.8,0-1.98,.04-3.34,0-4.7-.99-31.4,29.8-51.46,58.34-38.01,16.06,7.57,20.93,23.79,11.84,39.5-.72,1.24-1.53,2.44-2.76,4.39,14.36-5.07,27.49-4.71,38.93,5.29,6.81,5.95,10.3,13.71,11.45,22.75,2.3,18.07-16.64,40.94-42.14,35.13,1.35,1.8,2.47,3.25,3.56,4.73,9.34,12.71,9.17,29.37-.65,40.92-7.7,9.06-18.09,10.54-29.08,9.31-9.68-1.09-17.94-5.4-25.41-13.08-1.29,7.32-2.71,13.94-3.59,20.63-3.17,24.11-3.33,48.37-.48,72.41,3.19,26.93,8.07,53.67,12.23,80.49,.12,.78,.49,1.52,.85,2.61,0-15.28,.69-30.18-.18-44.98-1.04-17.71-3.52-35.33-5.2-53-1.15-12.13-2.27-24.28-2.88-36.45-.26-5.23,.79-10.53,1.92-15.79,1.11,5.72,1.98,11.5,3.39,17.15,3.58,14.36,10.05,27.6,16.11,41.02,3.71,8.2,7.31,16.6,9.55,25.28,2.92,11.32-.31,22.53-3.12,33.56-3.55,13.89-7.63,27.67-10.64,41.67-1.91,8.91-2.3,18.14-2.78,27.32,4.88-22.04,10.56-43.76,19.24-64.6,8.75-21.01,19.96-40.48,36.37-57.71-3.16,.68-5.51,1.18-7.85,1.7-21.91,4.81-38.19-13.33-35.16-33.96,2.11-14.35,12.26-25.98,25.11-28.82,3.84-.85,7.91-.62,11.87-.88-1.1-3.82-2.8-7.81-3.35-11.96-1.59-12.06,.99-23.17,9.59-32.17,9.15-9.57,23.28-9.93,33.33-1.21,5.66,4.91,9.32,10.55,12.14,18.81,.4-.27,.84-.44,1.08-.75,9.79-12.93,23.27-16.62,38.6-15.04,8.36,.86,16.27,3.55,23.26,8.41,16.04,11.16,18.38,31.5,5.15,46.01-3.46,3.8-7.55,7.02-11.58,10.72,2.3,.51,4.63,.88,6.86,1.56,12.22,3.72,22.05,10.32,25.13,23.52,2.79,11.93-1.61,22.23-9.49,30.96-16.18,17.93-39.13,18.75-57.61,2.34-2.96-2.63-5.8-5.4-9.04-8.44,.78,5.07,1.62,9.71,2.2,14.38,2.2,17.47-9.44,34.64-26.14,38.33-10.44,2.3-19.34-1.18-26.83-8.38-7.77-7.48-12.85-16.43-13.76-28.54Zm65.28-63.65c.18,.34,.37,.68,.55,1.02,2.25-.3,4.51-.55,6.76-.9,10.05-1.58,19.86-3.89,28.64-9.35,7.05-4.38,12.72-9.99,15.5-18.03,3.65-10.52-.3-20.13-10.48-24.51-3.7-1.59-7.83-2.61-11.84-2.96-17.73-1.55-33.94,5.59-38.47,25.54-1.14,5.02-1.4,10.23-2.07,15.36l1.25,.53c7.65-6.64,15.29-13.28,22.94-19.92l.43,.41c-5.62,8.48-11.24,16.95-17.1,25.79,8.42-4.59,16.5-8.99,24.57-13.4l.32,.61c-7.01,6.6-14.01,13.2-21.02,19.8Zm-1.03,16.69l-.22,1.02c9.11,5.03,18.23,10.05,27.34,15.08l-.4,.82c-10.74-3.04-21.47-6.09-33.14-9.4,1.59,2.06,2.42,3.23,3.34,4.32,7.2,8.53,14.56,16.9,24.87,21.85,15.01,7.2,31.48,3.13,40.58-9.92,5.49-7.86,4.94-16.37-1.46-23.52-3.99-4.47-9.03-7.2-14.7-8.84-9.38-2.7-18.92-2.15-28.45-1.16-4.94,.51-9.86,1.24-14.78,1.87l-.14,.86c4.57,3.13,9.15,6.25,13.72,9.38l-.36,.59c-5.4-.98-10.81-1.97-16.21-2.95Zm-112.33-133.25l.06,.84c8.27,2.55,16.5,5.2,24.82,7.58,3.34,.96,6.83,1.59,10.3,1.87,8.71,.71,17.19-.19,24.63-5.31,5.29-3.64,8.71-8.56,7.89-15.28-1.27-10.43-10.08-20.5-20.39-22.53-4.84-.96-10.17-.93-15.02-.02-12.87,2.42-22.67,10.9-33.11,18.32h16.25c-5.58,2.22-10.21,4.05-14.83,5.89l.28,.66h30.25c-11.05,2.83-21.09,5.41-31.12,7.98Zm-118.54,92.95l.48,.14v27.49c5.97-7.31,11.28-14.51,14.72-22.94,3.07-7.52,4.56-15.22,2.84-23.34-2.47-11.71-11.83-18.82-22.46-16.3-11.62,2.76-19.94,9.83-23.25,21.53-4.42,15.63,2.76,28.31,11.77,40.54,.92-10.01,1.83-20.02,2.75-30.03h.46c1.57,9.26,3.14,18.54,4.71,27.81l.72,.09c2.42-8.33,4.85-16.66,7.27-25Zm111.05-113.92l.76,.52c3.68-2.7,7.48-5.27,11.02-8.14,3.09-2.51,6.1-5.18,8.8-8.1,4.81-5.19,8.59-11.04,10.28-18.06,3.1-12.86-4.86-23.14-18.06-23.19-6.93-.03-13.35,1.86-19.19,5.61-17.77,11.44-18.97,32.73-9.12,48.55,3.58-9.55,7.03-18.74,10.47-27.93l.42,.15c-.71,8.72-1.42,17.43-2.19,26.94,5.24-8.01,10-15.28,14.76-22.56l.64,.31c-2.86,8.63-5.73,17.26-8.59,25.89Zm-88.89,140.96c-4.74,3.94-8.63,7.18-12.53,10.42l.44,.67c9.16-2.68,18.32-5.37,27.48-8.05-4.23,3.35-8.74,5.88-13.24,8.42-4.43,2.5-8.84,5.01-13.27,7.52,7.93,1.79,15.53,3.12,23.19,3.56,8.9,.51,17.7-.77,25.34-5.84,6.92-4.6,11.67-10.8,10.21-19.68-2.28-13.89-17.53-23.17-31.29-19.52-9.65,2.56-16.17,9.34-22.6,16.27-3.12,3.36-6.05,6.9-9.71,11.1,5.69-1.73,10.34-3.14,15.99-4.85Zm82.36-97.41l-1.38,.36c0,5.3-.23,10.62,.04,15.91,.9,17.68,10.34,27.75,26.73,28.77,14.51,.9,24.11-8.04,24.05-22.57-.06-12.49-6.71-21.1-17.39-26.25-7.49-3.62-15.71-5.74-23.6-8.53l-.44,.83,21.14,25.55-.58,.46c-6.8-5.15-13.6-10.3-20.93-15.86,4.1,9.36,7.88,17.98,11.65,26.59l-.84,.41c-6.15-8.56-12.3-17.12-18.46-25.68Zm94.96,125.14c-6.73,3.48-15.72,12.15-19.67,18.54-11.22,18.18,3.11,36.33,17.61,39.7,2.06,.48,4.38,.68,6.43,.27,10.19-2.07,16.05-8.9,18.93-18.43,2.56-8.45,.77-16.78-1.75-24.92-1.53-4.95-3.53-9.76-5.32-14.64l-1.06,.18c-2.24,10.13-4.49,20.26-6.73,30.38-.31-.03-.62-.07-.93-.1v-27.13l-.69-.1c-4.23,8.6-8.46,17.19-12.68,25.79l-.73-.29c2.16-9.59,4.32-19.19,6.59-29.25Zm-232.32-5.93l-.1-1.09c-11.93-2.01-23.86-4.02-35.8-6.03l.07-1.08h31.58l.1-.93c-7.92-4.62-15.85-9.25-23.77-13.87l.34-.64c10.03,3.19,20.07,6.38,30.1,9.57l.69-.86c-3.95-4.46-7.44-9.46-11.97-13.22-5.12-4.25-10.78-8.36-16.89-10.8-11.7-4.69-22.32-.53-26.85,9.23-4.62,9.95-1.87,24.71,6.1,32.25,3.29,3.11,6.98,5.57,11.74,5.84,12.45,.71,23.31-4.73,34.64-8.36Zm-5.85,13.06c-8.5,2.46-15.58,5.37-21.82,10.04-9.65,7.22-14.38,16.72-12.99,28.9,1.43,12.46,12.14,22.77,26.89,15.82,13.47-6.35,19.96-17.32,21.04-31.79,.32-4.31,.05-8.67,.05-13l-1.12-.19c-6.76,10.93-13.52,21.86-20.28,32.78-.29-.13-.59-.25-.88-.38,3.84-10.24,7.68-20.48,11.52-30.72l-.44-.21c-7.01,7.6-14.03,15.19-21.04,22.79l-.7-.57c6.42-10.88,12.84-21.76,19.76-33.5Zm225.52-38.75l.37-1.1c-4.8-3.21-9.34-6.97-14.49-9.45-3.87-1.86-8.53-2.93-12.83-2.89-13.41,.14-22.21,16.28-18.66,29.2,2.21,8.06,9.17,13.4,17.51,13.92,12.38,.78,22.1-4.25,30.05-13.18v-1.32c-11.57-2.05-23.14-4.1-34.7-6.15,5.38-.91,10.77-1.14,16.15-1.39,5.48-.26,10.95-.55,16.43-.83l.2-.84c-6.43-2.31-12.87-4.62-19.3-6.93l.15-.63c6.38,.54,12.76,1.07,19.13,1.61Zm-110.85-108.32l-.9-1.17c-3.2,.87-6.45,1.62-9.61,2.63-14.24,4.56-22.05,14.63-21.28,27.83,.45,7.73,4.33,13.58,11.48,16.71,6.75,2.96,13.23,1.88,19.05-2.68,5.76-4.52,8.91-10.73,10.83-17.59,1.55-5.54,2.34-11.19,1.32-17.52-9.26,7.61-18.05,14.83-26.83,22.04l-.59-.55c6.56-8.31,13.13-16.62,19.69-24.93l-.7-.78c-5.28,3.13-10.56,6.26-15.84,9.39l-.81-.83c4.73-4.18,9.47-8.37,14.2-12.55Zm-24.67-41.65l.29-.55c9.36,3.3,18.73,6.6,28.09,9.89l.62-1.07c-2.97-4.08-5.64-8.42-8.96-12.19-6.81-7.72-15.01-12.78-25.92-11.91-6.87,.55-12.7,5.45-13.79,12.2-1.14,7.11,1.51,13.26,5.34,19.01,8.55,12.83,24.96,18.19,39.05,12.29-10.2-8.64-22.55-12.93-33.23-20.13,11.12,3.29,22.24,6.59,33.36,9.88l.37-.67c-8.41-5.58-16.82-11.16-25.23-16.74Zm157.73,130.81l1-.05c.82-4.72,1.88-9.41,2.4-14.15,1-9.06-.5-17.6-6.39-24.92-8.04-9.99-19.51-9.4-26.45,1.31-4.26,6.57-5.8,13.79-4.7,21.46,1.67,11.61,8.48,19.83,18.42,27.05-2.3-13.11-4.44-25.3-6.58-37.49l.6-.24c4.65,10.9,9.31,21.8,13.96,32.7l.57-.17c-.49-9.73-.97-19.47-1.46-29.2l.66-.08c2.66,7.93,5.32,15.86,7.97,23.79Zm-213.47,66.82c1.21,15.97,13.64,29.67,30.72,29.19,7.42-.21,14.12-2.09,17.53-9.3,3.57-7.53,3.01-15.19-2.18-21.86-7.53-9.69-18.69-11.91-30.93-14.32,5.75,9.22,13.12,15.6,19.52,23.02-7.86-3.88-15.72-7.75-23.57-11.63l-.45,.53c5.62,7.39,11.24,14.77,16.86,22.16l-.52,.52c-8.82-5.99-17.64-11.97-26.98-18.31Zm106.31,177.98c-5.62-43.87-34.86-80.12-90.97-72.07,45.98,4.27,80,23.59,90.97,72.07Zm-4.57-358.15c-6.92,.06-11.84,5.19-11.8,12.32,.04,6.62,5.35,11.85,12.02,11.82,6.45-.02,12-5.61,11.96-12.04-.04-6.83-5.4-12.16-12.18-12.1Zm124.84,142.31c.1-6.69-5.01-12.01-11.67-12.15-6.95-.14-12.33,4.96-12.41,11.76-.08,6.71,5.3,12.15,12.07,12.21,6.68,.05,11.91-5.09,12.01-11.82Zm-221.5,15.03c.02-6.34-4.68-11.27-10.73-11.24-6.14,.03-11.09,5-11.02,11.06,.07,6.22,5.21,11.54,11.14,11.52,6.07-.02,10.58-4.85,10.6-11.35Zm201.6,119.89c-18.43-1.36-46.27,12.37-51.28,25.69,14.84-13.98,32.31-21.24,51.28-25.69Z"/></svg>